<svg width="504" height="268" viewBox="0 0 504 268" fill="none" xmlns="http://www.w3.org/2000/svg">
<path d="M234.361 195.69V71.5496C234.361 68.2626 232.609 65.2212 229.751 63.5624L122.17 1.47659C119.312 -0.182302 115.808 -0.182302 112.949 1.47659L5.36865 63.5624C2.51008 65.2212 0.758057 68.2626 0.758057 71.5496V195.69C0.758057 198.977 2.51008 202.019 5.36865 203.678L112.949 265.763C115.808 267.422 119.312 267.422 122.17 265.763L229.751 203.678C232.609 202.019 234.361 198.977 234.361 195.69Z" fill="#13B2AB"/>
<path d="M13.053 190.376V76.8644C13.053 74.6833 14.221 72.6557 16.1267 71.5498L114.486 14.7787C116.392 13.6727 118.728 13.6727 120.633 14.7787L218.993 71.5498C220.898 72.6557 222.066 74.6833 222.066 76.8644V190.376C222.066 192.557 220.898 194.585 218.993 195.691L120.633 252.462C118.728 253.568 116.392 253.568 114.486 252.462L16.1267 195.691C14.221 194.615 13.053 192.557 13.053 190.376Z" fill="white" stroke="#0E6E6A" stroke-miterlimit="10"/>
<path d="M144.147 97.7848C146.83 97.7848 149.004 95.6116 149.004 92.931C149.004 90.2503 146.83 88.0771 144.147 88.0771C141.465 88.0771 139.291 90.2503 139.291 92.931C139.291 95.6116 141.465 97.7848 144.147 97.7848Z" fill="#0E6E6A" stroke="#0E6E6A" stroke-miterlimit="10"/>
<path d="M144.147 179.193C146.83 179.193 149.004 177.02 149.004 174.34C149.004 171.659 146.83 169.486 144.147 169.486C141.465 169.486 139.291 171.659 139.291 174.34C139.291 177.02 141.465 179.193 144.147 179.193Z" fill="#0E6E6A" stroke="#0E6E6A" stroke-miterlimit="10"/>
<path d="M180.079 129.028L166.555 142.545H101.484C99.1789 147.859 93.4925 151.361 87.1299 150.317C81.4435 149.395 76.8636 144.603 76.1874 138.889C75.2345 130.84 81.4742 123.99 89.3429 123.99C94.0765 123.99 98.226 126.509 100.562 130.256H161.453L174.977 116.74H211.247V83.1008C211.247 80.9197 210.079 78.8921 208.173 77.7862L120.633 27.2206C118.728 26.1146 116.392 26.1146 114.486 27.2206L26.9155 77.7555C25.0098 78.8614 23.8418 80.889 23.8418 83.0701V101.164H53.3803L66.9047 87.6474H131.976C134.281 82.3328 139.967 78.8307 146.33 79.8752C152.016 80.7968 156.596 85.5892 157.272 91.3031C158.225 99.3519 151.986 106.202 144.117 106.202C139.383 106.202 135.234 103.683 132.898 99.9355H72.0071L58.4827 113.452H23.8418V153.788H58.4827L72.0071 167.305H132.898C135.787 162.666 141.443 159.932 147.59 161.499C152.201 162.666 155.92 166.476 156.996 171.084C159.055 179.808 152.477 187.55 144.117 187.55C138.676 187.55 134.004 184.263 131.976 179.593H66.9355L53.4111 166.076H23.8725V184.14C23.8725 186.321 25.0406 188.349 26.9463 189.455L114.517 239.989C116.422 241.095 118.759 241.095 120.664 239.989L208.235 189.455C210.14 188.349 211.308 186.321 211.308 184.14V129.028H180.079Z" fill="url(#paint0_linear_116_978)" stroke="#0E6E6A" stroke-miterlimit="10"/>
<path d="M89.3428 142.114C92.025 142.114 94.1993 139.941 94.1993 137.261C94.1993 134.58 92.025 132.407 89.3428 132.407C86.6607 132.407 84.4863 134.58 84.4863 137.261C84.4863 139.941 86.6607 142.114 89.3428 142.114Z" fill="#0E6E6A" stroke="#0E6E6A" stroke-miterlimit="10"/>
<path d="M72.0071 167.336H132.898C133.451 166.414 134.158 165.585 134.896 164.847C127.764 156.492 119.588 148.996 110.582 142.575H101.423C99.3632 147.245 94.7219 150.532 89.2814 150.532C81.9659 150.532 76.0336 144.603 76.0336 137.291C76.0336 132.929 78.1853 129.089 81.4127 126.662C65.583 120.364 48.2779 116.893 30.1429 116.893C28.022 116.893 25.9011 116.955 23.7803 117.047V153.788H58.4212L72.0071 167.336Z" fill="#0E6E6A" stroke="#0E6E6A" stroke-miterlimit="10"/>
<path d="M149.865 186.229C148.113 187.058 146.207 187.58 144.117 187.58C138.676 187.58 134.004 184.293 131.975 179.624H66.9354L53.411 166.107H23.8724V187.703L117.59 241.771L162.129 216.058C159.239 205.552 155.121 195.568 149.865 186.229Z" fill="#0E6E6A" stroke="#0E6E6A" stroke-miterlimit="10"/>
<path d="M285.204 136.475C273.821 136.475 265.238 134.547 259.454 130.691C253.669 126.835 250.777 120.884 250.777 112.838V100.491H273.191V110.224C273.191 113.932 274.025 116.731 275.694 118.622C277.362 120.513 280.514 121.458 285.148 121.458C289.82 121.458 293.027 120.587 294.77 118.844C296.513 117.065 297.384 114.358 297.384 110.724V60.7251H319.797V113.95C319.797 121.366 316.924 126.983 311.177 130.802C305.43 134.584 296.772 136.475 285.204 136.475Z" fill="#0F4745"/>
<path d="M322.203 135.807L345.562 60.7251H377.263L400.678 135.807H377.541L373.147 118.733H349.733L345.339 135.807H322.203ZM353.348 104.05H369.588L361.579 73.7393H361.357L353.348 104.05Z" fill="#0F4745"/>
<path d="M407.394 135.807V60.7251H443.489L455.836 119.4H455.558L467.849 60.7251H504V135.807H481.809V76.1865H481.642L468.683 134.751H442.711L429.752 76.1865H429.585V135.807H407.394Z" fill="#0F4745"/>
<path d="M275.777 211.515C271.383 211.515 267.657 210.598 264.598 208.762C261.567 206.899 260.051 203.548 260.051 198.71V171.096H248.747V161.461H260.051V145.707H274.108V161.461H289.292V171.096H274.108V195.623C274.108 198.32 274.665 200.086 275.777 200.92C276.917 201.727 278.516 202.13 280.574 202.13C282.632 202.13 284.648 201.783 286.622 201.087V210.347C283.174 211.126 279.559 211.515 275.777 211.515Z" fill="#0F4745"/>
<path d="M327.273 185.821C327.273 179.592 326.564 175.518 325.145 173.599C323.727 171.652 321.753 170.679 319.222 170.679C316.275 170.679 313.939 171.708 312.215 173.766C310.49 175.796 309.628 178.132 309.628 180.773L304.248 177.562C304.248 172.89 306.111 168.969 309.837 165.799C313.563 162.601 318.444 161.002 324.478 161.002C331.013 161.002 335.448 163.018 337.784 167.05C340.12 171.054 341.288 177.311 341.288 185.821H327.273ZM295.655 210.89V161.461H306.5L309.67 170.012V210.89H295.655Z" fill="#0F4745"/>
<path d="M366.961 211.432C365.015 211.432 363.096 211.321 361.205 211.098C359.342 210.876 357.59 210.459 355.949 209.847C354.309 209.207 352.863 208.317 351.611 207.177C350.36 206.037 349.373 204.563 348.65 202.756C347.954 200.948 347.607 198.738 347.607 196.124C347.607 193.593 347.954 191.466 348.65 189.742C349.373 187.99 350.346 186.558 351.57 185.445C352.793 184.333 354.211 183.471 355.824 182.859C357.437 182.247 359.161 181.83 360.997 181.608C362.832 181.357 364.695 181.232 366.586 181.232H382.186V179.314C382.186 177.061 381.741 175.281 380.852 173.974C379.99 172.667 378.794 171.75 377.264 171.221C375.763 170.665 374.066 170.387 372.175 170.387C370.451 170.387 368.88 170.651 367.462 171.18C366.044 171.708 364.848 172.57 363.875 173.766C362.929 174.962 362.262 176.56 361.872 178.563L348.149 174.725C348.65 172.25 349.567 170.151 350.902 168.427C352.265 166.675 353.989 165.256 356.074 164.172C358.188 163.06 360.593 162.253 363.291 161.753C366.016 161.224 368.964 160.96 372.134 160.96C377.111 160.96 381.408 161.558 385.023 162.754C388.638 163.949 391.419 165.938 393.365 168.719C395.312 171.499 396.285 175.281 396.285 180.064V210.89H384.606L383.396 205.217C383.062 205.968 382.437 206.719 381.519 207.469C380.601 208.192 379.419 208.86 377.973 209.472C376.555 210.056 374.915 210.528 373.051 210.89C371.216 211.251 369.186 211.432 366.961 211.432ZM370.132 202.631C371.494 202.631 372.843 202.506 374.178 202.255C375.54 202.005 376.778 201.644 377.89 201.171C379.03 200.698 379.976 200.142 380.726 199.502C381.477 198.835 381.964 198.112 382.186 197.333L382.52 188.991H369.881C368.769 188.991 367.726 189.074 366.753 189.241C365.78 189.38 364.917 189.686 364.167 190.159C363.444 190.631 362.874 191.313 362.456 192.203C362.039 193.092 361.831 194.26 361.831 195.706C361.831 197.18 362.053 198.376 362.498 199.294C362.971 200.184 363.597 200.879 364.375 201.379C365.182 201.852 366.072 202.186 367.045 202.38C368.046 202.547 369.075 202.631 370.132 202.631Z" fill="#0F4745"/>
<path d="M427.239 211.39C418.007 211.39 411.555 209.207 407.884 204.841C404.242 200.448 402.42 194.26 402.42 186.279C402.42 178.104 404.242 171.847 407.884 167.509C411.555 163.171 418.007 161.002 427.239 161.002C435.442 161.002 441.129 162.782 444.299 166.341C447.497 169.9 449.36 173.641 449.889 177.562L437.417 181.9C437.194 178.118 436.193 175.309 434.414 173.474C432.662 171.611 430.27 170.679 427.239 170.679C424.236 170.679 421.733 171.722 419.731 173.807C417.729 175.893 416.727 180.05 416.727 186.279C416.727 192.258 417.729 196.332 419.731 198.501C421.733 200.67 424.236 201.755 427.239 201.755C430.27 201.755 432.662 200.781 434.414 198.835C436.193 196.888 437.194 194.163 437.417 190.659L449.889 195.164C449.36 198.807 447.497 202.422 444.299 206.009C441.129 209.597 435.442 211.39 427.239 211.39Z" fill="#0F4745"/>
<path d="M456.883 210.89V145.401H470.898V184.069L468.02 182.15L486.957 161.419H503.267L486.457 181.065L487.333 178.813L503.809 210.89H488.918L477.364 186.738L480.325 186.321L470.106 196.874L470.898 190.451V210.89H456.883Z" fill="#0F4745"/>
<defs>
<linearGradient id="paint0_linear_116_978" x1="50.5636" y1="178.57" x2="326.134" y2="-6.51903" gradientUnits="userSpaceOnUse">
<stop offset="0.2745" stop-color="#13B2AB"/>
<stop offset="0.4352" stop-color="#0E9D96"/>
<stop offset="0.7531" stop-color="#0C7A75"/>
<stop offset="0.9152" stop-color="#0E6E6A"/>
</linearGradient>
</defs>
</svg>
