<svg width="12" height="12" viewBox="0 0 12 12" fill="none" xmlns="http://www.w3.org/2000/svg">
<path d="M1.31239 0.230106C1.16424 0.0784121 0.956381 0.00037454 0.748374 1.34491e-06L0.749875 2.3465e-10L0.746875 0L0.748374 1.34491e-06C0.573369 0.000314967 0.398457 0.05549 0.256359 0.166861C-0.0556514 0.411769 -0.0871524 0.836993 0.185857 1.11689L4.9488 5.99997L0.185797 10.8831C-0.0872125 11.163 -0.0557116 11.5882 0.256299 11.8331C0.568309 12.078 1.04232 12.0498 1.31533 11.7699L6.00149 6.96592L10.6876 11.7699C10.8358 11.9216 11.0437 11.9996 11.2517 12L11.2502 12H11.2532L11.2517 12C11.4267 11.9997 11.6016 11.9445 11.7437 11.8331C12.0557 11.5882 12.0872 11.163 11.8142 10.8831L7.05124 6.00003L11.8142 1.11689C12.0873 0.836994 12.0557 0.41177 11.7437 0.166861C11.4317 -0.0780467 10.9577 -0.0497882 10.6847 0.230107L5.99855 5.03407L1.31239 0.230106Z" fill="#1E1E1E"/>
</svg>
