<svg width="24" height="20" viewBox="0 0 24 20" fill="none" xmlns="http://www.w3.org/2000/svg">
<path fill-rule="evenodd" clip-rule="evenodd" d="M5.33333 1.66667C5.33333 0.746192 5.93029 0 6.66667 0H22.6667C23.403 0 24 0.746192 24 1.66667C24 2.58714 23.403 3.33333 22.6667 3.33333H6.66667C5.93029 3.33333 5.33333 2.58714 5.33333 1.66667Z" fill=""/>
<path fill-rule="evenodd" clip-rule="evenodd" d="M5.33333 10C5.33333 9.07952 5.93029 8.33333 6.66667 8.33333H22.6667C23.403 8.33333 24 9.07952 24 10C24 10.9205 23.403 11.6667 22.6667 11.6667H6.66667C5.93029 11.6667 5.33333 10.9205 5.33333 10Z" fill="whte"/>
<path fill-rule="evenodd" clip-rule="evenodd" d="M5.33333 18.3333C5.33333 17.4129 5.93029 16.6667 6.66667 16.6667H22.6667C23.403 16.6667 24 17.4129 24 18.3333C24 19.2538 23.403 20 22.6667 20H6.66667C5.93029 20 5.33333 19.2538 5.33333 18.3333Z" fill=""/>
<path d="M2.66667 1.66667C2.66667 2.58714 2.06971 3.33333 1.33333 3.33333C0.596954 3.33333 0 2.58714 0 1.66667C0 0.746192 0.596954 0 1.33333 0C2.06971 0 2.66667 0.746192 2.66667 1.66667Z" fill=""/>
<path d="M2.66667 10C2.66667 10.9205 2.06971 11.6667 1.33333 11.6667C0.596954 11.6667 0 10.9205 0 10C0 9.07952 0.596954 8.33333 1.33333 8.33333C2.06971 8.33333 2.66667 9.07952 2.66667 10Z" fill=""/>
<path d="M2.66667 18.3333C2.66667 19.2538 2.06971 20 1.33333 20C0.596954 20 0 19.2538 0 18.3333C0 17.4129 0.596954 16.6667 1.33333 16.6667C2.06971 16.6667 2.66667 17.4129 2.66667 18.3333Z" fill=""/>
</svg>
