<svg width="28" height="28" viewBox="0 0 28 28" fill="" xmlns="http://www.w3.org/2000/svg">
<path d="M9.6249 22.3125C9.1874 21.875 7.8749 21.875 7.8749 21.875L7.68896 21.3176C7.53058 20.8425 7.1574 20.4693 6.68227 20.3109L6.1249 20.125C6.1249 20.125 6.34365 19.0313 5.6874 18.375L16.6249 7.43751L20.1249 11.8125L9.6249 22.3125ZM22.7499 9.18751L18.8124 5.25001L20.8599 3.20251C20.8599 3.20251 22.3911 2.54626 23.9224 4.07751C25.4536 5.60876 24.7974 7.14001 24.7974 7.14001L22.7499 9.18751ZM3.9374 21.875L3.13108 23.8333C2.86246 24.4851 3.51477 25.1374 4.16665 24.8688L6.1249 24.0625L3.9374 21.875Z" fill=""/>
</svg>
