<svg width="42" height="42" viewBox="0 0 42 42" fill="none" xmlns="http://www.w3.org/2000/svg">
<rect width="42" height="42" fill="white"/>
<path fill-rule="evenodd" clip-rule="evenodd" d="M30.5 21.2273C30.5 20.5182 30.4351 19.8364 30.3145 19.1818H20.7041V23.05H26.1957C25.9592 24.3 25.2403 25.3591 24.1596 26.0682V28.5773H27.4573C29.3868 26.8364 30.5 24.2727 30.5 21.2273Z" fill="#4285F4"/>
<path fill-rule="evenodd" clip-rule="evenodd" d="M20.7041 31C23.4592 31 25.769 30.1046 27.4573 28.5773L24.1596 26.0682C23.2458 26.6682 22.077 27.0227 20.7041 27.0227C18.0464 27.0227 15.7968 25.2636 14.9944 22.9H11.5853V25.4909C13.2644 28.7591 16.7152 31 20.7041 31Z" fill="#34A853"/>
<path fill-rule="evenodd" clip-rule="evenodd" d="M14.9944 22.9C14.7904 22.3 14.6744 21.6591 14.6744 21C14.6744 20.3409 14.7904 19.7 14.9944 19.1V16.5091H11.5853C10.8942 17.8591 10.5 19.3864 10.5 21C10.5 22.6137 10.8943 24.1409 11.5853 25.4909L14.9944 22.9Z" fill="#FBBC05"/>
<path fill-rule="evenodd" clip-rule="evenodd" d="M20.7041 14.9773C22.2022 14.9773 23.5473 15.4818 24.6048 16.4727L27.5315 13.6045C25.7644 11.9909 23.4545 11 20.7041 11C16.7152 11 13.2644 13.2409 11.5853 16.5091L14.9944 19.1C15.7968 16.7364 18.0464 14.9773 20.7041 14.9773Z" fill="#EA4335"/>
</svg>
