<svg width="28" height="28" viewBox="0 0 28 28" fill="none" xmlns="http://www.w3.org/2000/svg">
<path fill-rule="evenodd" clip-rule="evenodd" d="M14 25.2C20.1856 25.2 25.2 20.1856 25.2 14C25.2 7.81441 20.1856 2.8 14 2.8C7.81441 2.8 2.8 7.81441 2.8 14C2.8 20.1856 7.81441 25.2 14 25.2ZM14 28C21.732 28 28 21.732 28 14C28 6.26801 21.732 0 14 0C6.26801 0 0 6.26801 0 14C0 21.732 6.26801 28 14 28Z" fill=""/>
<path fill-rule="evenodd" clip-rule="evenodd" d="M14 11.2C14.7732 11.2 15.4 11.8268 15.4 12.6V19.6012C15.4 20.3744 14.7732 21.0012 14 21.0012C13.2268 21.0012 12.6 20.3744 12.6 19.6012V12.6C12.6 11.8268 13.2268 11.2 14 11.2Z" fill=""/>
<path d="M15.4 8.4C15.4 9.1732 14.7732 9.8 14 9.8C13.2268 9.8 12.6 9.1732 12.6 8.4C12.6 7.6268 13.2268 7 14 7C14.7732 7 15.4 7.6268 15.4 8.4Z" fill=""/>
</svg>
