<svg width="28" height="28" viewBox="0 0 28 28" fill="none" xmlns="http://www.w3.org/2000/svg">
<path fill-rule="evenodd" clip-rule="evenodd" d="M8.17314 4.13556C5.18426 6.17028 3.22687 9.59864 3.22687 13.4791C3.22687 19.7166 8.2834 24.7731 14.5209 24.7731C18.4014 24.7731 21.8297 22.8157 23.8644 19.8269C15.6209 18.9257 9.07431 12.3791 8.17314 4.13556ZM25.815 16.706C27.2123 16.706 28.4155 17.9374 27.8626 19.2206C25.6372 24.3848 20.5013 28 14.5209 28C6.50124 28 0 21.4988 0 13.4791C0 7.49875 3.61519 2.36279 8.77935 0.137428C10.0626 -0.415551 11.2941 0.787719 11.2941 2.18503C11.2941 10.2047 17.7953 16.706 25.815 16.706Z" fill=""/>
</svg>
