<svg width="28" height="26" viewBox="0 0 28 26" fill="" xmlns="http://www.w3.org/2000/svg">
<path d="M26.4599 0.00159116C25.9726 0.0187879 25.5255 0.276733 25.2676 0.689445L11.4646 21.8066L2.52254 14.0797C2.13849 13.6813 1.56241 13.5323 1.03219 13.6985C0.504838 13.8618 0.112188 14.309 0.0204744 14.8535C-0.0712394 15.4009 0.149447 15.9512 0.596552 16.2808L10.8226 25.1312C11.1436 25.4035 11.5678 25.5238 11.9834 25.4636C12.4018 25.4006 12.7716 25.1627 13.0009 24.8102L27.7439 2.29444C28.0591 1.833 28.0849 1.23686 27.8126 0.749632C27.5404 0.265269 27.0159 -0.0242032 26.4599 0.00159116Z" fill=""/>
</svg>
