<svg width="80" height="80" viewBox="0 0 80 80"  xmlns="http://www.w3.org/2000/svg">
<path d="M36 37H37V36L37 24C37 22.3431 38.3431 21 40 21C41.6569 21 43 22.3431 43 24V36V37H44H56C57.6569 37 59 38.3431 59 40C59 41.6569 57.6569 43 56 43H44H43V44L43 56C43 57.6569 41.6568 59 40 59C38.3431 59 37 57.6568 37 56V44V43H36H24C22.3431 43 21 41.6569 21 40C21 38.3431 22.3431 37 24 37H36ZM40 73C58.2254 73 73 58.2254 73 40C73 21.7746 58.2254 7 40 7C21.7746 7 7 21.7746 7 40C7 58.2254 21.7746 73 40 73ZM79 40C79 61.5391 61.5391 79 40 79C18.4609 79 1 61.5391 1 40C1 18.4609 18.4609 1 40 1C61.5391 1 79 18.4609 79 40Z"  stroke="white" stroke-width="2" stroke-linecap="round"/>
</svg>
