<svg width="24" height="24" viewBox="0 0 24 24" fill="none" xmlns="http://www.w3.org/2000/svg">
<path d="M10.75 20.7528C10.75 20.752 10.75 20.7511 10.75 20.7503M10.75 20.7528L10.75 20.7503M10.75 20.7528C10.75 20.7536 10.75 20.7545 10.75 20.7553M10.75 20.7528L10.75 20.7553M10.75 20.7503V20.7553M10.75 20.7503V20.7553M2 20.7528C2 20.752 2 20.7511 2 20.7503M2 20.7528L2 20.7503M2 20.7528C2 20.7536 2 20.7545 2 20.7553M2 20.7528L2 20.7553M2 20.7503V20.7553M2 20.7503V20.7553M10.4375 19.0959L10.4371 19.0963C9.97116 19.5499 9.75124 20.1633 9.75 20.7503C9.75 20.7511 9.75 20.752 9.75 20.7528C9.75 20.7536 9.75 20.7545 9.75 20.7553C9.75105 21.2535 9.90857 21.7657 10.2428 22.1909L10.2432 22.1914C11.0104 23.1658 12.41 23.2866 13.3143 22.4072L22.3111 13.6583C22.3113 13.6581 22.3115 13.6579 22.3117 13.6577C22.764 13.2193 23 12.6118 23 12C23 11.3838 22.7589 10.7795 22.3144 10.3449L22.3125 10.3431L13.3143 1.59275C12.41 0.713407 11.0104 0.834151 10.2432 1.80857C9.5243 2.72172 9.59439 4.08922 10.4375 4.90911C10.4375 4.90912 10.4375 4.90913 10.4375 4.90914L17.7312 12.0025L10.4375 19.0959ZM1.68748 19.0959L1.68706 19.0963C1.22116 19.5499 1.00124 20.1633 1 20.7503C0.999998 20.7511 1 20.752 1 20.7528C1 20.7536 0.999998 20.7545 1 20.7553C1.00105 21.2535 1.15857 21.7657 1.49278 22.1909L1.49324 22.1914C2.26041 23.1658 3.66003 23.2866 4.56429 22.4072L13.5611 13.6583C13.5614 13.658 13.5617 13.6577 13.562 13.6574C14.0141 13.219 14.25 12.6117 14.25 12C14.25 11.3839 14.0089 10.7795 13.5644 10.3449L13.5625 10.3431L4.56429 1.59275C3.66004 0.713406 2.26041 0.834151 1.49324 1.80857C0.774295 2.72172 0.844395 4.08922 1.68748 4.90911C1.68749 4.90912 1.6875 4.90913 1.68751 4.90914L8.98124 12.0025L1.68748 19.0959Z" fill="" stroke="" />
</svg>
