<svg width="28" height="28" viewBox="0 0 28 28" fill="none" xmlns="http://www.w3.org/2000/svg">
<path fill-rule="evenodd" clip-rule="evenodd" d="M1.4 0C2.1732 0 2.8 0.626801 2.8 1.4V23.8C2.8 24.5732 3.4268 25.2 4.2 25.2H26.6C27.3732 25.2 28 25.8268 28 26.6C28 27.3732 27.3732 28 26.6 28H4.2C1.8804 28 0 26.1196 0 23.8V1.4C0 0.626801 0.626801 0 1.4 0Z" fill=""/>
<path fill-rule="evenodd" clip-rule="evenodd" d="M27.5899 8.81005C28.1367 9.35678 28.1367 10.2432 27.5899 10.7899L21.1698 17.2101C19.5296 18.8503 16.8704 18.8503 15.2302 17.2101L12.1899 14.1698C11.6432 13.6231 10.7568 13.6231 10.2101 14.1698L7.28995 17.0899C6.74321 17.6367 5.85678 17.6367 5.31005 17.0899C4.76332 16.5432 4.76332 15.6568 5.31005 15.1101L8.23015 12.1899C9.87035 10.5497 12.5296 10.5497 14.1698 12.1899L17.2101 15.2302C17.7568 15.7769 18.6432 15.7769 19.1899 15.2302L25.61 8.81005C26.1568 8.26332 27.0432 8.26332 27.5899 8.81005Z" fill=""/>
</svg>
