<svg width="28" height="28" viewBox="0 0 28 28" fill="none" xmlns="http://www.w3.org/2000/svg">
<path fill-rule="evenodd" clip-rule="evenodd" d="M14.0068 19.6035C17.1001 19.6035 19.6078 17.0959 19.6078 14.0025C19.6078 10.9092 17.1001 8.40151 14.0068 8.40151C10.9134 8.40151 8.40578 10.9092 8.40578 14.0025C8.40578 17.0959 10.9134 19.6035 14.0068 19.6035ZM22.4083 14.0025C22.4083 18.6425 18.6468 22.404 14.0068 22.404C9.36676 22.404 5.60528 18.6425 5.60528 14.0025C5.60528 9.36249 9.36676 5.60101 14.0068 5.60101C18.6468 5.60101 22.4083 9.36249 22.4083 14.0025Z" fill=""/>
<path fill-rule="evenodd" clip-rule="evenodd" d="M14 0C14.7734 0 15.4003 0.626914 15.4003 1.40025V2.8005C15.4003 3.57384 14.7734 4.20075 14 4.20075C13.2267 4.20075 12.5998 3.57384 12.5998 2.8005V1.40025C12.5998 0.626914 13.2267 0 14 0Z" fill=""/>
<path fill-rule="evenodd" clip-rule="evenodd" d="M14 23.8038C14.7734 23.8038 15.4003 24.4307 15.4003 25.204V26.5997C15.4003 27.3731 14.7734 28 14 28C13.2267 28 12.5998 27.3731 12.5998 26.5997V25.204C12.5998 24.4307 13.2267 23.8038 14 23.8038Z" fill=""/>
<path fill-rule="evenodd" clip-rule="evenodd" d="M4.10054 4.10052C4.64737 3.55368 5.53396 3.55368 6.08079 4.10052L7.29127 5.31099C7.8381 5.85783 7.8381 6.74442 7.29127 7.29125C6.74444 7.83808 5.85785 7.83808 5.31101 7.29125L4.10054 6.08077C3.5537 5.53394 3.5537 4.64735 4.10054 4.10052Z" fill=""/>
<path fill-rule="evenodd" clip-rule="evenodd" d="M20.7181 20.7181C21.2649 20.1713 22.1515 20.1713 22.6983 20.7181L23.8995 21.9193C24.4463 22.4661 24.4463 23.3527 23.8995 23.8996C23.3526 24.4464 22.466 24.4464 21.9192 23.8995L20.7181 22.6983C20.1712 22.1515 20.1712 21.2649 20.7181 20.7181Z" fill=""/>
<path fill-rule="evenodd" clip-rule="evenodd" d="M0 14C0 13.2267 0.626914 12.5998 1.40025 12.5998H2.8005C3.57384 12.5998 4.20075 13.2267 4.20075 14C4.20075 14.7734 3.57384 15.4003 2.8005 15.4003H1.40025C0.626914 15.4003 0 14.7734 0 14Z" fill=""/>
<path fill-rule="evenodd" clip-rule="evenodd" d="M23.8038 14C23.8038 13.2267 24.4307 12.5998 25.204 12.5998H26.5997C27.3731 12.5998 28 13.2267 28 14C28 14.7734 27.3731 15.4003 26.5997 15.4003H25.204C24.4307 15.4003 23.8038 14.7734 23.8038 14Z" fill=""/>
<path fill-rule="evenodd" clip-rule="evenodd" d="M4.10052 23.8995C3.55368 23.3527 3.55368 22.4661 4.10052 21.9193L5.30604 20.7138C5.85287 20.1669 6.73946 20.1669 7.28629 20.7138C7.83312 21.2606 7.83312 22.1472 7.28629 22.694L6.08077 23.8995C5.53394 24.4464 4.64735 24.4464 4.10052 23.8995Z" fill=""/>
<path fill-rule="evenodd" clip-rule="evenodd" d="M20.7087 7.29125C20.1619 6.74441 20.1619 5.85782 20.7088 5.311L21.9193 4.10049C22.4661 3.55366 23.3527 3.55368 23.8996 4.10052C24.4464 4.64736 24.4464 5.53395 23.8995 6.08078L22.689 7.29129C22.1421 7.83811 21.2555 7.83809 20.7087 7.29125Z" fill=""/>
</svg>
