<svg width="28" height="28" viewBox="0 0 28 28" fill="none" xmlns="http://www.w3.org/2000/svg">
<path d="M0 15.9919V6H2.7672V15.8197C2.7672 16.9538 3.06986 17.8223 3.67519 18.4253C4.28051 19.0283 5.13806 19.3297 6.24782 19.3297C7.37199 19.3297 8.23674 19.0283 8.84207 18.4253C9.44739 17.808 9.75006 16.9394 9.75006 15.8197V6H12.5173V15.9919C12.5173 17.2122 12.2578 18.2746 11.739 19.179C11.2345 20.0691 10.5139 20.7654 9.57711 21.2678C8.6403 21.7559 7.53053 22 6.24782 22C4.97952 22 3.87696 21.7559 2.94015 21.2678C2.00334 20.7797 1.27551 20.0834 0.756656 19.179C0.252219 18.2746 0 17.2122 0 15.9919Z" fill=""/>
<path d="M16.6069 21.7416H13.7532L19.4606 6H22.2927L28 21.7416H25.0815L23.806 18.1023H17.904L16.6069 21.7416ZM20.5199 10.6945L18.7039 15.7766H23.0061L21.1901 10.6945C21.1324 10.4791 21.0676 10.2638 20.9955 10.0485C20.9235 9.83311 20.8802 9.64648 20.8658 9.48856C20.837 9.63212 20.7865 9.81875 20.7145 10.0485C20.6568 10.2638 20.592 10.4791 20.5199 10.6945Z" fill=""/>
</svg>
