<svg width="28" height="28" viewBox="0 0 28 28"  xmlns="http://www.w3.org/2000/svg">
<g clip-path="url(#clip0_54_2060)">
<path fill-rule="evenodd" clip-rule="evenodd" d="M14 14C15.5464 14 16.8 12.7464 16.8 11.2C16.8 9.65365 15.5464 8.40005 14 8.40005C12.4536 8.40005 11.2 9.65365 11.2 11.2C11.2 12.7464 12.4536 14 14 14ZM14 16.8C17.0928 16.8 19.6 14.2928 19.6 11.2C19.6 8.10725 17.0928 5.60005 14 5.60005C10.9072 5.60005 8.4 8.10725 8.4 11.2C8.4 14.2928 10.9072 16.8 14 16.8Z" />
<path fill-rule="evenodd" clip-rule="evenodd" d="M23.1824 24.5684C26.134 22.0017 28 18.2188 28 14C28 6.26806 21.732 4.57764e-05 14 4.57764e-05C6.26801 4.57764e-05 0 6.26806 0 14C0 18.2188 1.86598 22.0016 4.81763 24.5684C7.27571 26.7059 10.4867 28 14 28C17.3827 28 20.4853 26.8003 22.9053 24.8031C22.9987 24.7261 23.091 24.6478 23.1824 24.5684ZM14.3611 25.1943C14.2412 25.1981 14.1208 25.2 14 25.2C13.9879 25.2 13.9758 25.2 13.9638 25.2C13.8512 25.1996 13.7389 25.1976 13.6271 25.194C11.7479 25.1325 9.98583 24.6081 8.45117 23.7311C9.73253 22.0685 11.7435 21 14 21C16.2565 21 18.2675 22.0685 19.5488 23.7311C18.011 24.6099 16.2447 25.1347 14.3611 25.1943ZM21.7874 22.0497C19.9965 19.7094 17.1745 18.2 14 18.2C10.8255 18.2 8.00353 19.7094 6.21262 22.0497C4.10826 20.0135 2.8 17.1595 2.8 14C2.8 7.81446 7.81441 2.80005 14 2.80005C20.1856 2.80005 25.2 7.81446 25.2 14C25.2 17.1595 23.8917 20.0135 21.7874 22.0497Z" />
</g>
<defs>
<clipPath id="clip0_54_2060">
<rect width="28" height="28" />
</clipPath>
</defs>
</svg>
